<?xml version="1.0" encoding="UTF-8"?>
<!DOCTYPE svg PUBLIC "-//W3C//DTD SVG 1.1//EN" "http://www.w3.org/Graphics/SVG/1.1/DTD/svg11.dtd">
<!-- Creator: CorelDRAW X7 -->
<svg xmlns="http://www.w3.org/2000/svg" xml:space="preserve" width="3.3116mm" height="2.8467mm" version="1.1" style="shape-rendering:geometricPrecision; text-rendering:geometricPrecision; image-rendering:optimizeQuality; fill-rule:evenodd; clip-rule:evenodd"
viewBox="0 0 39 34"
 xmlns:xlink="http://www.w3.org/1999/xlink">
 <defs>
  <style type="text/css">
   <![CDATA[
    .fil0 {fill:#333333}
   ]]>
  </style>
 </defs>
 <g id="Camada_x0020_1">
  <metadata id="CorelCorpID_0Corel-Layer"/>
  <g id="_2281230699952">
   <g id="XMLID_511_">
    <path id="XMLID_512_" class="fil0" d="M11 30c-1,1 -2,1 -3,1 -3,0 -6,-2 -6,-5 0,-3 3,-6 6,-6 2,0 4,2 5,4l2 -2c-2,-2 -4,-4 -7,-4 -4,0 -8,4 -8,8 0,4 4,8 8,8 2,0 4,-1 5,-2 0,-1 -1,-1 -1,-1 0,0 -1,-1 -1,-1z"/>
    <path id="XMLID_513_" class="fil0" d="M23 18l-4 -2c2,-2 1,-1 3,-2l0 0c0,1 1,2 2,2 0,0 7,2 7,2 1,0 2,-1 2,-2 0,-1 0,-2 -2,-2l-5 -1 0 -3c1,-1 1,-2 0,-3l-1 -1c-1,-2 -3,-2 -4,-1l-9 5c-2,1 -3,4 -1,6 1,1 7,5 7,5l-5 5c-1,1 -1,3 0,4 0,0 1,0 1,0 1,0 2,0 2,0l8 -8c1,-1 1,-3 -1,-4z"/>
    <path id="XMLID_514_" class="fil0" d="M32 7c2,-1 2,-3 1,-5 -1,-2 -3,-3 -5,-1 -2,1 -3,3 -1,5 1,2 3,2 5,1z"/>
    <path id="XMLID_515_" class="fil0" d="M31 18c-4,0 -8,4 -8,8 0,4 4,8 8,8 5,0 8,-4 8,-8 0,-4 -3,-8 -8,-8zm0 13c-3,0 -5,-2 -5,-5 0,-3 2,-6 5,-6 3,0 6,3 6,6 0,3 -3,5 -6,5z"/>
   </g>
   <g>
   </g>
   <g>
   </g>
   <g>
   </g>
   <g>
   </g>
   <g>
   </g>
   <g>
   </g>
   <g>
   </g>
   <g>
   </g>
   <g>
   </g>
   <g>
   </g>
   <g>
   </g>
   <g>
   </g>
   <g>
   </g>
   <g>
   </g>
   <g>
   </g>
  </g>
 </g>
</svg>
