<?xml version="1.0" encoding="UTF-8"?>
<!DOCTYPE svg PUBLIC "-//W3C//DTD SVG 1.1//EN" "http://www.w3.org/Graphics/SVG/1.1/DTD/svg11.dtd">
<!-- Creator: CorelDRAW X7 -->
<svg xmlns="http://www.w3.org/2000/svg" xml:space="preserve" width="5.1908mm" height="4.9821mm" version="1.1" style="shape-rendering:geometricPrecision; text-rendering:geometricPrecision; image-rendering:optimizeQuality; fill-rule:evenodd; clip-rule:evenodd"
viewBox="0 0 35 34"
 xmlns:xlink="http://www.w3.org/1999/xlink">
 <defs>
  <style type="text/css">
   <![CDATA[
    .fil0 {fill:#333333}
   ]]>
  </style>
 </defs>
 <g id="Camada_x0020_1">
  <metadata id="CorelCorpID_0Corel-Layer"/>
  <g id="_2281230735984">
   <g id="XMLID_57_">
    <path id="XMLID_58_" class="fil0" d="M35 9c0,-1 -1,-1 -2,0l-4 2 0 -1c0,-2 0,-3 -2,-3 0,-1 -1,-1 -2,-1l-5 0c-1,0 -1,0 -1,1l-1 5 2 -2c0,0 0,0 1,0l0 -2 2 0 -1 2c0,0 1,1 1,1 1,1 1,3 0,3 -1,1 -3,2 -3,2l-1 4 -4 -1c-1,0 -1,0 -1,0l2 3c0,0 1,1 1,1l3 1c1,0 1,0 2,-1l0 -4 4 2 -2 8c0,1 0,2 1,2 1,0 2,0 2,-1l2 -9c0,0 0,-1 -1,-1l-2 -3 1 -4 1 0c0,1 1,1 1,1l6 -3c0,-1 1,-1 0,-2z"/>
    <path id="XMLID_59_" class="fil0" d="M13 20l0 -1 1 -2 1 -1 0 0c0,1 1,1 1,1l6 -3c0,-1 1,-2 0,-2 0,-1 -1,-1 -1,-1l-5 3 0 -2c0,-1 0,-2 -1,-3 -1,0 -1,0 -1,0 -1,0 -1,0 -2,0l-5 0c-1,0 -1,0 -1,1l-1 5c0,1 0,2 1,2 1,0 1,-1 1,-1l1 -5 2 0 -3 6c0,0 0,1 0,2l-1 4 -4 -1c-1,0 -2,0 -2,1 0,1 0,2 1,2l6 2c1,0 2,-1 2,-1 0,-4 0,-3 1,-4l3 2 -2 8c0,1 1,2 1,2 1,0 2,0 2,-1l2 -9c0,-1 0,-1 -1,-2l-2 -2z"/>
    <path id="XMLID_60_" class="fil0" d="M14 8c2,1 4,0 4,-1 1,-2 0,-3 -1,-4 -2,-1 -3,0 -4,2 -1,1 0,3 1,3z"/>
    <path id="XMLID_61_" class="fil0" d="M27 6c2,0 3,0 4,-2 1,-1 0,-3 -1,-4 -2,0 -4,0 -4,2 -1,1 0,3 1,4z"/>
   </g>
   <g>
   </g>
   <g>
   </g>
   <g>
   </g>
   <g>
   </g>
   <g>
   </g>
   <g>
   </g>
   <g>
   </g>
   <g>
   </g>
   <g>
   </g>
   <g>
   </g>
   <g>
   </g>
   <g>
   </g>
   <g>
   </g>
   <g>
   </g>
   <g>
   </g>
  </g>
 </g>
</svg>
